<svg viewBox="0 0 856 142" role="img" xmlns="http://www.w3.org/2000/svg">
<title>A solved 3 by 20 pentomino board</title>
<rect x="8" y="8" width="42" height="42" fill="#93aacb"/>
<rect x="50" y="8" width="42" height="42" fill="#93aacb"/>
<rect x="92" y="8" width="42" height="42" fill="#b298c5"/>
<rect x="134" y="8" width="42" height="42" fill="#d9b77f"/>
<rect x="176" y="8" width="42" height="42" fill="#d9b77f"/>
<rect x="218" y="8" width="42" height="42" fill="#d9b77f"/>
<rect x="260" y="8" width="42" height="42" fill="#d9b77f"/>
<rect x="302" y="8" width="42" height="42" fill="#d9b77f"/>
<rect x="344" y="8" width="42" height="42" fill="#9fb6cd"/>
<rect x="386" y="8" width="42" height="42" fill="#9dbfa4"/>
<rect x="428" y="8" width="42" height="42" fill="#9dbfa4"/>
<rect x="470" y="8" width="42" height="42" fill="#a99ec9"/>
<rect x="512" y="8" width="42" height="42" fill="#a99ec9"/>
<rect x="554" y="8" width="42" height="42" fill="#a99ec9"/>
<rect x="596" y="8" width="42" height="42" fill="#d49a92"/>
<rect x="638" y="8" width="42" height="42" fill="#a9c090"/>
<rect x="680" y="8" width="42" height="42" fill="#a9c090"/>
<rect x="722" y="8" width="42" height="42" fill="#a9c090"/>
<rect x="764" y="8" width="42" height="42" fill="#a9c090"/>
<rect x="806" y="8" width="42" height="42" fill="#c3ac82"/>
<rect x="8" y="50" width="42" height="42" fill="#93aacb"/>
<rect x="50" y="50" width="42" height="42" fill="#b298c5"/>
<rect x="92" y="50" width="42" height="42" fill="#b298c5"/>
<rect x="134" y="50" width="42" height="42" fill="#b298c5"/>
<rect x="176" y="50" width="42" height="42" fill="#d29fb6"/>
<rect x="218" y="50" width="42" height="42" fill="#d29fb6"/>
<rect x="260" y="50" width="42" height="42" fill="#9fb6cd"/>
<rect x="302" y="50" width="42" height="42" fill="#9fb6cd"/>
<rect x="344" y="50" width="42" height="42" fill="#9fb6cd"/>
<rect x="386" y="50" width="42" height="42" fill="#d2bd7d"/>
<rect x="428" y="50" width="42" height="42" fill="#9dbfa4"/>
<rect x="470" y="50" width="42" height="42" fill="#9dbfa4"/>
<rect x="512" y="50" width="42" height="42" fill="#a99ec9"/>
<rect x="554" y="50" width="42" height="42" fill="#d49a92"/>
<rect x="596" y="50" width="42" height="42" fill="#d49a92"/>
<rect x="638" y="50" width="42" height="42" fill="#d49a92"/>
<rect x="680" y="50" width="42" height="42" fill="#8bb3ac"/>
<rect x="722" y="50" width="42" height="42" fill="#8bb3ac"/>
<rect x="764" y="50" width="42" height="42" fill="#a9c090"/>
<rect x="806" y="50" width="42" height="42" fill="#c3ac82"/>
<rect x="8" y="92" width="42" height="42" fill="#93aacb"/>
<rect x="50" y="92" width="42" height="42" fill="#93aacb"/>
<rect x="92" y="92" width="42" height="42" fill="#b298c5"/>
<rect x="134" y="92" width="42" height="42" fill="#d29fb6"/>
<rect x="176" y="92" width="42" height="42" fill="#d29fb6"/>
<rect x="218" y="92" width="42" height="42" fill="#d29fb6"/>
<rect x="260" y="92" width="42" height="42" fill="#9fb6cd"/>
<rect x="302" y="92" width="42" height="42" fill="#d2bd7d"/>
<rect x="344" y="92" width="42" height="42" fill="#d2bd7d"/>
<rect x="386" y="92" width="42" height="42" fill="#d2bd7d"/>
<rect x="428" y="92" width="42" height="42" fill="#d2bd7d"/>
<rect x="470" y="92" width="42" height="42" fill="#9dbfa4"/>
<rect x="512" y="92" width="42" height="42" fill="#a99ec9"/>
<rect x="554" y="92" width="42" height="42" fill="#d49a92"/>
<rect x="596" y="92" width="42" height="42" fill="#8bb3ac"/>
<rect x="638" y="92" width="42" height="42" fill="#8bb3ac"/>
<rect x="680" y="92" width="42" height="42" fill="#8bb3ac"/>
<rect x="722" y="92" width="42" height="42" fill="#c3ac82"/>
<rect x="764" y="92" width="42" height="42" fill="#c3ac82"/>
<rect x="806" y="92" width="42" height="42" fill="#c3ac82"/>
<rect x="8" y="8" width="42" height="42" fill="none" stroke="#ffffff" stroke-width="1" opacity="0.5"/>
<rect x="50" y="8" width="42" height="42" fill="none" stroke="#ffffff" stroke-width="1" opacity="0.5"/>
<rect x="92" y="8" width="42" height="42" fill="none" stroke="#ffffff" stroke-width="1" opacity="0.5"/>
<rect x="134" y="8" width="42" height="42" fill="none" stroke="#ffffff" stroke-width="1" opacity="0.5"/>
<rect x="176" y="8" width="42" height="42" fill="none" stroke="#ffffff" stroke-width="1" opacity="0.5"/>
<rect x="218" y="8" width="42" height="42" fill="none" stroke="#ffffff" stroke-width="1" opacity="0.5"/>
<rect x="260" y="8" width="42" height="42" fill="none" stroke="#ffffff" stroke-width="1" opacity="0.5"/>
<rect x="302" y="8" width="42" height="42" fill="none" stroke="#ffffff" stroke-width="1" opacity="0.5"/>
<rect x="344" y="8" width="42" height="42" fill="none" stroke="#ffffff" stroke-width="1" opacity="0.5"/>
<rect x="386" y="8" width="42" height="42" fill="none" stroke="#ffffff" stroke-width="1" opacity="0.5"/>
<rect x="428" y="8" width="42" height="42" fill="none" stroke="#ffffff" stroke-width="1" opacity="0.5"/>
<rect x="470" y="8" width="42" height="42" fill="none" stroke="#ffffff" stroke-width="1" opacity="0.5"/>
<rect x="512" y="8" width="42" height="42" fill="none" stroke="#ffffff" stroke-width="1" opacity="0.5"/>
<rect x="554" y="8" width="42" height="42" fill="none" stroke="#ffffff" stroke-width="1" opacity="0.5"/>
<rect x="596" y="8" width="42" height="42" fill="none" stroke="#ffffff" stroke-width="1" opacity="0.5"/>
<rect x="638" y="8" width="42" height="42" fill="none" stroke="#ffffff" stroke-width="1" opacity="0.5"/>
<rect x="680" y="8" width="42" height="42" fill="none" stroke="#ffffff" stroke-width="1" opacity="0.5"/>
<rect x="722" y="8" width="42" height="42" fill="none" stroke="#ffffff" stroke-width="1" opacity="0.5"/>
<rect x="764" y="8" width="42" height="42" fill="none" stroke="#ffffff" stroke-width="1" opacity="0.5"/>
<rect x="806" y="8" width="42" height="42" fill="none" stroke="#ffffff" stroke-width="1" opacity="0.5"/>
<rect x="8" y="50" width="42" height="42" fill="none" stroke="#ffffff" stroke-width="1" opacity="0.5"/>
<rect x="50" y="50" width="42" height="42" fill="none" stroke="#ffffff" stroke-width="1" opacity="0.5"/>
<rect x="92" y="50" width="42" height="42" fill="none" stroke="#ffffff" stroke-width="1" opacity="0.5"/>
<rect x="134" y="50" width="42" height="42" fill="none" stroke="#ffffff" stroke-width="1" opacity="0.5"/>
<rect x="176" y="50" width="42" height="42" fill="none" stroke="#ffffff" stroke-width="1" opacity="0.5"/>
<rect x="218" y="50" width="42" height="42" fill="none" stroke="#ffffff" stroke-width="1" opacity="0.5"/>
<rect x="260" y="50" width="42" height="42" fill="none" stroke="#ffffff" stroke-width="1" opacity="0.5"/>
<rect x="302" y="50" width="42" height="42" fill="none" stroke="#ffffff" stroke-width="1" opacity="0.5"/>
<rect x="344" y="50" width="42" height="42" fill="none" stroke="#ffffff" stroke-width="1" opacity="0.5"/>
<rect x="386" y="50" width="42" height="42" fill="none" stroke="#ffffff" stroke-width="1" opacity="0.5"/>
<rect x="428" y="50" width="42" height="42" fill="none" stroke="#ffffff" stroke-width="1" opacity="0.5"/>
<rect x="470" y="50" width="42" height="42" fill="none" stroke="#ffffff" stroke-width="1" opacity="0.5"/>
<rect x="512" y="50" width="42" height="42" fill="none" stroke="#ffffff" stroke-width="1" opacity="0.5"/>
<rect x="554" y="50" width="42" height="42" fill="none" stroke="#ffffff" stroke-width="1" opacity="0.5"/>
<rect x="596" y="50" width="42" height="42" fill="none" stroke="#ffffff" stroke-width="1" opacity="0.5"/>
<rect x="638" y="50" width="42" height="42" fill="none" stroke="#ffffff" stroke-width="1" opacity="0.5"/>
<rect x="680" y="50" width="42" height="42" fill="none" stroke="#ffffff" stroke-width="1" opacity="0.5"/>
<rect x="722" y="50" width="42" height="42" fill="none" stroke="#ffffff" stroke-width="1" opacity="0.5"/>
<rect x="764" y="50" width="42" height="42" fill="none" stroke="#ffffff" stroke-width="1" opacity="0.5"/>
<rect x="806" y="50" width="42" height="42" fill="none" stroke="#ffffff" stroke-width="1" opacity="0.5"/>
<rect x="8" y="92" width="42" height="42" fill="none" stroke="#ffffff" stroke-width="1" opacity="0.5"/>
<rect x="50" y="92" width="42" height="42" fill="none" stroke="#ffffff" stroke-width="1" opacity="0.5"/>
<rect x="92" y="92" width="42" height="42" fill="none" stroke="#ffffff" stroke-width="1" opacity="0.5"/>
<rect x="134" y="92" width="42" height="42" fill="none" stroke="#ffffff" stroke-width="1" opacity="0.5"/>
<rect x="176" y="92" width="42" height="42" fill="none" stroke="#ffffff" stroke-width="1" opacity="0.5"/>
<rect x="218" y="92" width="42" height="42" fill="none" stroke="#ffffff" stroke-width="1" opacity="0.5"/>
<rect x="260" y="92" width="42" height="42" fill="none" stroke="#ffffff" stroke-width="1" opacity="0.5"/>
<rect x="302" y="92" width="42" height="42" fill="none" stroke="#ffffff" stroke-width="1" opacity="0.5"/>
<rect x="344" y="92" width="42" height="42" fill="none" stroke="#ffffff" stroke-width="1" opacity="0.5"/>
<rect x="386" y="92" width="42" height="42" fill="none" stroke="#ffffff" stroke-width="1" opacity="0.5"/>
<rect x="428" y="92" width="42" height="42" fill="none" stroke="#ffffff" stroke-width="1" opacity="0.5"/>
<rect x="470" y="92" width="42" height="42" fill="none" stroke="#ffffff" stroke-width="1" opacity="0.5"/>
<rect x="512" y="92" width="42" height="42" fill="none" stroke="#ffffff" stroke-width="1" opacity="0.5"/>
<rect x="554" y="92" width="42" height="42" fill="none" stroke="#ffffff" stroke-width="1" opacity="0.5"/>
<rect x="596" y="92" width="42" height="42" fill="none" stroke="#ffffff" stroke-width="1" opacity="0.5"/>
<rect x="638" y="92" width="42" height="42" fill="none" stroke="#ffffff" stroke-width="1" opacity="0.5"/>
<rect x="680" y="92" width="42" height="42" fill="none" stroke="#ffffff" stroke-width="1" opacity="0.5"/>
<rect x="722" y="92" width="42" height="42" fill="none" stroke="#ffffff" stroke-width="1" opacity="0.5"/>
<rect x="764" y="92" width="42" height="42" fill="none" stroke="#ffffff" stroke-width="1" opacity="0.5"/>
<rect x="806" y="92" width="42" height="42" fill="none" stroke="#ffffff" stroke-width="1" opacity="0.5"/>
<line x1="8" y1="8" x2="8" y2="50" stroke="#2a2a30" stroke-width="2.6" stroke-linecap="round"/>
<line x1="8" y1="8" x2="50" y2="8" stroke="#2a2a30" stroke-width="2.6" stroke-linecap="round"/>
<line x1="92" y1="8" x2="92" y2="50" stroke="#2a2a30" stroke-width="2.6" stroke-linecap="round"/>
<line x1="50" y1="8" x2="92" y2="8" stroke="#2a2a30" stroke-width="2.6" stroke-linecap="round"/>
<line x1="50" y1="50" x2="92" y2="50" stroke="#2a2a30" stroke-width="2.6" stroke-linecap="round"/>
<line x1="92" y1="8" x2="92" y2="50" stroke="#2a2a30" stroke-width="2.6" stroke-linecap="round"/>
<line x1="134" y1="8" x2="134" y2="50" stroke="#2a2a30" stroke-width="2.6" stroke-linecap="round"/>
<line x1="92" y1="8" x2="134" y2="8" stroke="#2a2a30" stroke-width="2.6" stroke-linecap="round"/>
<line x1="134" y1="8" x2="134" y2="50" stroke="#2a2a30" stroke-width="2.6" stroke-linecap="round"/>
<line x1="134" y1="8" x2="176" y2="8" stroke="#2a2a30" stroke-width="2.6" stroke-linecap="round"/>
<line x1="134" y1="50" x2="176" y2="50" stroke="#2a2a30" stroke-width="2.6" stroke-linecap="round"/>
<line x1="176" y1="8" x2="218" y2="8" stroke="#2a2a30" stroke-width="2.6" stroke-linecap="round"/>
<line x1="176" y1="50" x2="218" y2="50" stroke="#2a2a30" stroke-width="2.6" stroke-linecap="round"/>
<line x1="218" y1="8" x2="260" y2="8" stroke="#2a2a30" stroke-width="2.6" stroke-linecap="round"/>
<line x1="218" y1="50" x2="260" y2="50" stroke="#2a2a30" stroke-width="2.6" stroke-linecap="round"/>
<line x1="260" y1="8" x2="302" y2="8" stroke="#2a2a30" stroke-width="2.6" stroke-linecap="round"/>
<line x1="260" y1="50" x2="302" y2="50" stroke="#2a2a30" stroke-width="2.6" stroke-linecap="round"/>
<line x1="344" y1="8" x2="344" y2="50" stroke="#2a2a30" stroke-width="2.6" stroke-linecap="round"/>
<line x1="302" y1="8" x2="344" y2="8" stroke="#2a2a30" stroke-width="2.6" stroke-linecap="round"/>
<line x1="302" y1="50" x2="344" y2="50" stroke="#2a2a30" stroke-width="2.6" stroke-linecap="round"/>
<line x1="344" y1="8" x2="344" y2="50" stroke="#2a2a30" stroke-width="2.6" stroke-linecap="round"/>
<line x1="386" y1="8" x2="386" y2="50" stroke="#2a2a30" stroke-width="2.6" stroke-linecap="round"/>
<line x1="344" y1="8" x2="386" y2="8" stroke="#2a2a30" stroke-width="2.6" stroke-linecap="round"/>
<line x1="386" y1="8" x2="386" y2="50" stroke="#2a2a30" stroke-width="2.6" stroke-linecap="round"/>
<line x1="386" y1="8" x2="428" y2="8" stroke="#2a2a30" stroke-width="2.6" stroke-linecap="round"/>
<line x1="386" y1="50" x2="428" y2="50" stroke="#2a2a30" stroke-width="2.6" stroke-linecap="round"/>
<line x1="470" y1="8" x2="470" y2="50" stroke="#2a2a30" stroke-width="2.6" stroke-linecap="round"/>
<line x1="428" y1="8" x2="470" y2="8" stroke="#2a2a30" stroke-width="2.6" stroke-linecap="round"/>
<line x1="470" y1="8" x2="470" y2="50" stroke="#2a2a30" stroke-width="2.6" stroke-linecap="round"/>
<line x1="470" y1="8" x2="512" y2="8" stroke="#2a2a30" stroke-width="2.6" stroke-linecap="round"/>
<line x1="470" y1="50" x2="512" y2="50" stroke="#2a2a30" stroke-width="2.6" stroke-linecap="round"/>
<line x1="512" y1="8" x2="554" y2="8" stroke="#2a2a30" stroke-width="2.6" stroke-linecap="round"/>
<line x1="596" y1="8" x2="596" y2="50" stroke="#2a2a30" stroke-width="2.6" stroke-linecap="round"/>
<line x1="554" y1="8" x2="596" y2="8" stroke="#2a2a30" stroke-width="2.6" stroke-linecap="round"/>
<line x1="554" y1="50" x2="596" y2="50" stroke="#2a2a30" stroke-width="2.6" stroke-linecap="round"/>
<line x1="596" y1="8" x2="596" y2="50" stroke="#2a2a30" stroke-width="2.6" stroke-linecap="round"/>
<line x1="638" y1="8" x2="638" y2="50" stroke="#2a2a30" stroke-width="2.6" stroke-linecap="round"/>
<line x1="596" y1="8" x2="638" y2="8" stroke="#2a2a30" stroke-width="2.6" stroke-linecap="round"/>
<line x1="638" y1="8" x2="638" y2="50" stroke="#2a2a30" stroke-width="2.6" stroke-linecap="round"/>
<line x1="638" y1="8" x2="680" y2="8" stroke="#2a2a30" stroke-width="2.6" stroke-linecap="round"/>
<line x1="638" y1="50" x2="680" y2="50" stroke="#2a2a30" stroke-width="2.6" stroke-linecap="round"/>
<line x1="680" y1="8" x2="722" y2="8" stroke="#2a2a30" stroke-width="2.6" stroke-linecap="round"/>
<line x1="680" y1="50" x2="722" y2="50" stroke="#2a2a30" stroke-width="2.6" stroke-linecap="round"/>
<line x1="722" y1="8" x2="764" y2="8" stroke="#2a2a30" stroke-width="2.6" stroke-linecap="round"/>
<line x1="722" y1="50" x2="764" y2="50" stroke="#2a2a30" stroke-width="2.6" stroke-linecap="round"/>
<line x1="806" y1="8" x2="806" y2="50" stroke="#2a2a30" stroke-width="2.6" stroke-linecap="round"/>
<line x1="764" y1="8" x2="806" y2="8" stroke="#2a2a30" stroke-width="2.6" stroke-linecap="round"/>
<line x1="806" y1="8" x2="806" y2="50" stroke="#2a2a30" stroke-width="2.6" stroke-linecap="round"/>
<line x1="848" y1="8" x2="848" y2="50" stroke="#2a2a30" stroke-width="2.6" stroke-linecap="round"/>
<line x1="806" y1="8" x2="848" y2="8" stroke="#2a2a30" stroke-width="2.6" stroke-linecap="round"/>
<line x1="8" y1="50" x2="8" y2="92" stroke="#2a2a30" stroke-width="2.6" stroke-linecap="round"/>
<line x1="50" y1="50" x2="50" y2="92" stroke="#2a2a30" stroke-width="2.6" stroke-linecap="round"/>
<line x1="50" y1="50" x2="50" y2="92" stroke="#2a2a30" stroke-width="2.6" stroke-linecap="round"/>
<line x1="50" y1="50" x2="92" y2="50" stroke="#2a2a30" stroke-width="2.6" stroke-linecap="round"/>
<line x1="50" y1="92" x2="92" y2="92" stroke="#2a2a30" stroke-width="2.6" stroke-linecap="round"/>
<line x1="176" y1="50" x2="176" y2="92" stroke="#2a2a30" stroke-width="2.6" stroke-linecap="round"/>
<line x1="134" y1="50" x2="176" y2="50" stroke="#2a2a30" stroke-width="2.6" stroke-linecap="round"/>
<line x1="134" y1="92" x2="176" y2="92" stroke="#2a2a30" stroke-width="2.6" stroke-linecap="round"/>
<line x1="176" y1="50" x2="176" y2="92" stroke="#2a2a30" stroke-width="2.6" stroke-linecap="round"/>
<line x1="176" y1="50" x2="218" y2="50" stroke="#2a2a30" stroke-width="2.6" stroke-linecap="round"/>
<line x1="260" y1="50" x2="260" y2="92" stroke="#2a2a30" stroke-width="2.6" stroke-linecap="round"/>
<line x1="218" y1="50" x2="260" y2="50" stroke="#2a2a30" stroke-width="2.6" stroke-linecap="round"/>
<line x1="260" y1="50" x2="260" y2="92" stroke="#2a2a30" stroke-width="2.6" stroke-linecap="round"/>
<line x1="260" y1="50" x2="302" y2="50" stroke="#2a2a30" stroke-width="2.6" stroke-linecap="round"/>
<line x1="302" y1="50" x2="344" y2="50" stroke="#2a2a30" stroke-width="2.6" stroke-linecap="round"/>
<line x1="302" y1="92" x2="344" y2="92" stroke="#2a2a30" stroke-width="2.6" stroke-linecap="round"/>
<line x1="386" y1="50" x2="386" y2="92" stroke="#2a2a30" stroke-width="2.6" stroke-linecap="round"/>
<line x1="344" y1="92" x2="386" y2="92" stroke="#2a2a30" stroke-width="2.6" stroke-linecap="round"/>
<line x1="386" y1="50" x2="386" y2="92" stroke="#2a2a30" stroke-width="2.6" stroke-linecap="round"/>
<line x1="428" y1="50" x2="428" y2="92" stroke="#2a2a30" stroke-width="2.6" stroke-linecap="round"/>
<line x1="386" y1="50" x2="428" y2="50" stroke="#2a2a30" stroke-width="2.6" stroke-linecap="round"/>
<line x1="428" y1="50" x2="428" y2="92" stroke="#2a2a30" stroke-width="2.6" stroke-linecap="round"/>
<line x1="428" y1="92" x2="470" y2="92" stroke="#2a2a30" stroke-width="2.6" stroke-linecap="round"/>
<line x1="512" y1="50" x2="512" y2="92" stroke="#2a2a30" stroke-width="2.6" stroke-linecap="round"/>
<line x1="470" y1="50" x2="512" y2="50" stroke="#2a2a30" stroke-width="2.6" stroke-linecap="round"/>
<line x1="512" y1="50" x2="512" y2="92" stroke="#2a2a30" stroke-width="2.6" stroke-linecap="round"/>
<line x1="554" y1="50" x2="554" y2="92" stroke="#2a2a30" stroke-width="2.6" stroke-linecap="round"/>
<line x1="554" y1="50" x2="554" y2="92" stroke="#2a2a30" stroke-width="2.6" stroke-linecap="round"/>
<line x1="554" y1="50" x2="596" y2="50" stroke="#2a2a30" stroke-width="2.6" stroke-linecap="round"/>
<line x1="596" y1="92" x2="638" y2="92" stroke="#2a2a30" stroke-width="2.6" stroke-linecap="round"/>
<line x1="680" y1="50" x2="680" y2="92" stroke="#2a2a30" stroke-width="2.6" stroke-linecap="round"/>
<line x1="638" y1="50" x2="680" y2="50" stroke="#2a2a30" stroke-width="2.6" stroke-linecap="round"/>
<line x1="638" y1="92" x2="680" y2="92" stroke="#2a2a30" stroke-width="2.6" stroke-linecap="round"/>
<line x1="680" y1="50" x2="680" y2="92" stroke="#2a2a30" stroke-width="2.6" stroke-linecap="round"/>
<line x1="680" y1="50" x2="722" y2="50" stroke="#2a2a30" stroke-width="2.6" stroke-linecap="round"/>
<line x1="764" y1="50" x2="764" y2="92" stroke="#2a2a30" stroke-width="2.6" stroke-linecap="round"/>
<line x1="722" y1="50" x2="764" y2="50" stroke="#2a2a30" stroke-width="2.6" stroke-linecap="round"/>
<line x1="722" y1="92" x2="764" y2="92" stroke="#2a2a30" stroke-width="2.6" stroke-linecap="round"/>
<line x1="764" y1="50" x2="764" y2="92" stroke="#2a2a30" stroke-width="2.6" stroke-linecap="round"/>
<line x1="806" y1="50" x2="806" y2="92" stroke="#2a2a30" stroke-width="2.6" stroke-linecap="round"/>
<line x1="764" y1="92" x2="806" y2="92" stroke="#2a2a30" stroke-width="2.6" stroke-linecap="round"/>
<line x1="806" y1="50" x2="806" y2="92" stroke="#2a2a30" stroke-width="2.6" stroke-linecap="round"/>
<line x1="848" y1="50" x2="848" y2="92" stroke="#2a2a30" stroke-width="2.6" stroke-linecap="round"/>
<line x1="8" y1="92" x2="8" y2="134" stroke="#2a2a30" stroke-width="2.6" stroke-linecap="round"/>
<line x1="8" y1="134" x2="50" y2="134" stroke="#2a2a30" stroke-width="2.6" stroke-linecap="round"/>
<line x1="92" y1="92" x2="92" y2="134" stroke="#2a2a30" stroke-width="2.6" stroke-linecap="round"/>
<line x1="50" y1="92" x2="92" y2="92" stroke="#2a2a30" stroke-width="2.6" stroke-linecap="round"/>
<line x1="50" y1="134" x2="92" y2="134" stroke="#2a2a30" stroke-width="2.6" stroke-linecap="round"/>
<line x1="92" y1="92" x2="92" y2="134" stroke="#2a2a30" stroke-width="2.6" stroke-linecap="round"/>
<line x1="134" y1="92" x2="134" y2="134" stroke="#2a2a30" stroke-width="2.6" stroke-linecap="round"/>
<line x1="92" y1="134" x2="134" y2="134" stroke="#2a2a30" stroke-width="2.6" stroke-linecap="round"/>
<line x1="134" y1="92" x2="134" y2="134" stroke="#2a2a30" stroke-width="2.6" stroke-linecap="round"/>
<line x1="134" y1="92" x2="176" y2="92" stroke="#2a2a30" stroke-width="2.6" stroke-linecap="round"/>
<line x1="134" y1="134" x2="176" y2="134" stroke="#2a2a30" stroke-width="2.6" stroke-linecap="round"/>
<line x1="176" y1="134" x2="218" y2="134" stroke="#2a2a30" stroke-width="2.6" stroke-linecap="round"/>
<line x1="260" y1="92" x2="260" y2="134" stroke="#2a2a30" stroke-width="2.6" stroke-linecap="round"/>
<line x1="218" y1="134" x2="260" y2="134" stroke="#2a2a30" stroke-width="2.6" stroke-linecap="round"/>
<line x1="260" y1="92" x2="260" y2="134" stroke="#2a2a30" stroke-width="2.6" stroke-linecap="round"/>
<line x1="302" y1="92" x2="302" y2="134" stroke="#2a2a30" stroke-width="2.6" stroke-linecap="round"/>
<line x1="260" y1="134" x2="302" y2="134" stroke="#2a2a30" stroke-width="2.6" stroke-linecap="round"/>
<line x1="302" y1="92" x2="302" y2="134" stroke="#2a2a30" stroke-width="2.6" stroke-linecap="round"/>
<line x1="302" y1="92" x2="344" y2="92" stroke="#2a2a30" stroke-width="2.6" stroke-linecap="round"/>
<line x1="302" y1="134" x2="344" y2="134" stroke="#2a2a30" stroke-width="2.6" stroke-linecap="round"/>
<line x1="344" y1="92" x2="386" y2="92" stroke="#2a2a30" stroke-width="2.6" stroke-linecap="round"/>
<line x1="344" y1="134" x2="386" y2="134" stroke="#2a2a30" stroke-width="2.6" stroke-linecap="round"/>
<line x1="386" y1="134" x2="428" y2="134" stroke="#2a2a30" stroke-width="2.6" stroke-linecap="round"/>
<line x1="470" y1="92" x2="470" y2="134" stroke="#2a2a30" stroke-width="2.6" stroke-linecap="round"/>
<line x1="428" y1="92" x2="470" y2="92" stroke="#2a2a30" stroke-width="2.6" stroke-linecap="round"/>
<line x1="428" y1="134" x2="470" y2="134" stroke="#2a2a30" stroke-width="2.6" stroke-linecap="round"/>
<line x1="470" y1="92" x2="470" y2="134" stroke="#2a2a30" stroke-width="2.6" stroke-linecap="round"/>
<line x1="512" y1="92" x2="512" y2="134" stroke="#2a2a30" stroke-width="2.6" stroke-linecap="round"/>
<line x1="470" y1="134" x2="512" y2="134" stroke="#2a2a30" stroke-width="2.6" stroke-linecap="round"/>
<line x1="512" y1="92" x2="512" y2="134" stroke="#2a2a30" stroke-width="2.6" stroke-linecap="round"/>
<line x1="554" y1="92" x2="554" y2="134" stroke="#2a2a30" stroke-width="2.6" stroke-linecap="round"/>
<line x1="512" y1="134" x2="554" y2="134" stroke="#2a2a30" stroke-width="2.6" stroke-linecap="round"/>
<line x1="554" y1="92" x2="554" y2="134" stroke="#2a2a30" stroke-width="2.6" stroke-linecap="round"/>
<line x1="596" y1="92" x2="596" y2="134" stroke="#2a2a30" stroke-width="2.6" stroke-linecap="round"/>
<line x1="554" y1="134" x2="596" y2="134" stroke="#2a2a30" stroke-width="2.6" stroke-linecap="round"/>
<line x1="596" y1="92" x2="596" y2="134" stroke="#2a2a30" stroke-width="2.6" stroke-linecap="round"/>
<line x1="596" y1="92" x2="638" y2="92" stroke="#2a2a30" stroke-width="2.6" stroke-linecap="round"/>
<line x1="596" y1="134" x2="638" y2="134" stroke="#2a2a30" stroke-width="2.6" stroke-linecap="round"/>
<line x1="638" y1="92" x2="680" y2="92" stroke="#2a2a30" stroke-width="2.6" stroke-linecap="round"/>
<line x1="638" y1="134" x2="680" y2="134" stroke="#2a2a30" stroke-width="2.6" stroke-linecap="round"/>
<line x1="722" y1="92" x2="722" y2="134" stroke="#2a2a30" stroke-width="2.6" stroke-linecap="round"/>
<line x1="680" y1="134" x2="722" y2="134" stroke="#2a2a30" stroke-width="2.6" stroke-linecap="round"/>
<line x1="722" y1="92" x2="722" y2="134" stroke="#2a2a30" stroke-width="2.6" stroke-linecap="round"/>
<line x1="722" y1="92" x2="764" y2="92" stroke="#2a2a30" stroke-width="2.6" stroke-linecap="round"/>
<line x1="722" y1="134" x2="764" y2="134" stroke="#2a2a30" stroke-width="2.6" stroke-linecap="round"/>
<line x1="764" y1="92" x2="806" y2="92" stroke="#2a2a30" stroke-width="2.6" stroke-linecap="round"/>
<line x1="764" y1="134" x2="806" y2="134" stroke="#2a2a30" stroke-width="2.6" stroke-linecap="round"/>
<line x1="848" y1="92" x2="848" y2="134" stroke="#2a2a30" stroke-width="2.6" stroke-linecap="round"/>
<line x1="806" y1="134" x2="848" y2="134" stroke="#2a2a30" stroke-width="2.6" stroke-linecap="round"/>
<rect x="8" y="8" width="840" height="126" fill="none" stroke="#2a2a30" stroke-width="3"/>
</svg>