<svg viewBox="0 0 456 280" role="img" xmlns="http://www.w3.org/2000/svg">
<title>A solved six by ten pentomino board</title>
<rect x="8" y="8" width="44" height="44" fill="#d49a92"/>
<rect x="52" y="8" width="44" height="44" fill="#d49a92"/>
<rect x="96" y="8" width="44" height="44" fill="#d9b77f"/>
<rect x="140" y="8" width="44" height="44" fill="#d9b77f"/>
<rect x="184" y="8" width="44" height="44" fill="#d9b77f"/>
<rect x="228" y="8" width="44" height="44" fill="#d9b77f"/>
<rect x="272" y="8" width="44" height="44" fill="#d9b77f"/>
<rect x="316" y="8" width="44" height="44" fill="#a9c090"/>
<rect x="360" y="8" width="44" height="44" fill="#9fb6cd"/>
<rect x="404" y="8" width="44" height="44" fill="#9fb6cd"/>
<rect x="8" y="52" width="44" height="44" fill="#c3ac82"/>
<rect x="52" y="52" width="44" height="44" fill="#d49a92"/>
<rect x="96" y="52" width="44" height="44" fill="#d49a92"/>
<rect x="140" y="52" width="44" height="44" fill="#d2bd7d"/>
<rect x="184" y="52" width="44" height="44" fill="#a9c090"/>
<rect x="228" y="52" width="44" height="44" fill="#a9c090"/>
<rect x="272" y="52" width="44" height="44" fill="#a9c090"/>
<rect x="316" y="52" width="44" height="44" fill="#a9c090"/>
<rect x="360" y="52" width="44" height="44" fill="#9fb6cd"/>
<rect x="404" y="52" width="44" height="44" fill="#8bb3ac"/>
<rect x="8" y="96" width="44" height="44" fill="#c3ac82"/>
<rect x="52" y="96" width="44" height="44" fill="#d49a92"/>
<rect x="96" y="96" width="44" height="44" fill="#d2bd7d"/>
<rect x="140" y="96" width="44" height="44" fill="#d2bd7d"/>
<rect x="184" y="96" width="44" height="44" fill="#d2bd7d"/>
<rect x="228" y="96" width="44" height="44" fill="#d2bd7d"/>
<rect x="272" y="96" width="44" height="44" fill="#b298c5"/>
<rect x="316" y="96" width="44" height="44" fill="#9fb6cd"/>
<rect x="360" y="96" width="44" height="44" fill="#9fb6cd"/>
<rect x="404" y="96" width="44" height="44" fill="#8bb3ac"/>
<rect x="8" y="140" width="44" height="44" fill="#c3ac82"/>
<rect x="52" y="140" width="44" height="44" fill="#c3ac82"/>
<rect x="96" y="140" width="44" height="44" fill="#c3ac82"/>
<rect x="140" y="140" width="44" height="44" fill="#a99ec9"/>
<rect x="184" y="140" width="44" height="44" fill="#9dbfa4"/>
<rect x="228" y="140" width="44" height="44" fill="#b298c5"/>
<rect x="272" y="140" width="44" height="44" fill="#b298c5"/>
<rect x="316" y="140" width="44" height="44" fill="#b298c5"/>
<rect x="360" y="140" width="44" height="44" fill="#8bb3ac"/>
<rect x="404" y="140" width="44" height="44" fill="#8bb3ac"/>
<rect x="8" y="184" width="44" height="44" fill="#d29fb6"/>
<rect x="52" y="184" width="44" height="44" fill="#d29fb6"/>
<rect x="96" y="184" width="44" height="44" fill="#d29fb6"/>
<rect x="140" y="184" width="44" height="44" fill="#a99ec9"/>
<rect x="184" y="184" width="44" height="44" fill="#9dbfa4"/>
<rect x="228" y="184" width="44" height="44" fill="#9dbfa4"/>
<rect x="272" y="184" width="44" height="44" fill="#b298c5"/>
<rect x="316" y="184" width="44" height="44" fill="#93aacb"/>
<rect x="360" y="184" width="44" height="44" fill="#8bb3ac"/>
<rect x="404" y="184" width="44" height="44" fill="#93aacb"/>
<rect x="8" y="228" width="44" height="44" fill="#d29fb6"/>
<rect x="52" y="228" width="44" height="44" fill="#d29fb6"/>
<rect x="96" y="228" width="44" height="44" fill="#a99ec9"/>
<rect x="140" y="228" width="44" height="44" fill="#a99ec9"/>
<rect x="184" y="228" width="44" height="44" fill="#a99ec9"/>
<rect x="228" y="228" width="44" height="44" fill="#9dbfa4"/>
<rect x="272" y="228" width="44" height="44" fill="#9dbfa4"/>
<rect x="316" y="228" width="44" height="44" fill="#93aacb"/>
<rect x="360" y="228" width="44" height="44" fill="#93aacb"/>
<rect x="404" y="228" width="44" height="44" fill="#93aacb"/>
<rect x="8" y="8" width="44" height="44" fill="none" stroke="#ffffff" stroke-width="1" opacity="0.5"/>
<rect x="52" y="8" width="44" height="44" fill="none" stroke="#ffffff" stroke-width="1" opacity="0.5"/>
<rect x="96" y="8" width="44" height="44" fill="none" stroke="#ffffff" stroke-width="1" opacity="0.5"/>
<rect x="140" y="8" width="44" height="44" fill="none" stroke="#ffffff" stroke-width="1" opacity="0.5"/>
<rect x="184" y="8" width="44" height="44" fill="none" stroke="#ffffff" stroke-width="1" opacity="0.5"/>
<rect x="228" y="8" width="44" height="44" fill="none" stroke="#ffffff" stroke-width="1" opacity="0.5"/>
<rect x="272" y="8" width="44" height="44" fill="none" stroke="#ffffff" stroke-width="1" opacity="0.5"/>
<rect x="316" y="8" width="44" height="44" fill="none" stroke="#ffffff" stroke-width="1" opacity="0.5"/>
<rect x="360" y="8" width="44" height="44" fill="none" stroke="#ffffff" stroke-width="1" opacity="0.5"/>
<rect x="404" y="8" width="44" height="44" fill="none" stroke="#ffffff" stroke-width="1" opacity="0.5"/>
<rect x="8" y="52" width="44" height="44" fill="none" stroke="#ffffff" stroke-width="1" opacity="0.5"/>
<rect x="52" y="52" width="44" height="44" fill="none" stroke="#ffffff" stroke-width="1" opacity="0.5"/>
<rect x="96" y="52" width="44" height="44" fill="none" stroke="#ffffff" stroke-width="1" opacity="0.5"/>
<rect x="140" y="52" width="44" height="44" fill="none" stroke="#ffffff" stroke-width="1" opacity="0.5"/>
<rect x="184" y="52" width="44" height="44" fill="none" stroke="#ffffff" stroke-width="1" opacity="0.5"/>
<rect x="228" y="52" width="44" height="44" fill="none" stroke="#ffffff" stroke-width="1" opacity="0.5"/>
<rect x="272" y="52" width="44" height="44" fill="none" stroke="#ffffff" stroke-width="1" opacity="0.5"/>
<rect x="316" y="52" width="44" height="44" fill="none" stroke="#ffffff" stroke-width="1" opacity="0.5"/>
<rect x="360" y="52" width="44" height="44" fill="none" stroke="#ffffff" stroke-width="1" opacity="0.5"/>
<rect x="404" y="52" width="44" height="44" fill="none" stroke="#ffffff" stroke-width="1" opacity="0.5"/>
<rect x="8" y="96" width="44" height="44" fill="none" stroke="#ffffff" stroke-width="1" opacity="0.5"/>
<rect x="52" y="96" width="44" height="44" fill="none" stroke="#ffffff" stroke-width="1" opacity="0.5"/>
<rect x="96" y="96" width="44" height="44" fill="none" stroke="#ffffff" stroke-width="1" opacity="0.5"/>
<rect x="140" y="96" width="44" height="44" fill="none" stroke="#ffffff" stroke-width="1" opacity="0.5"/>
<rect x="184" y="96" width="44" height="44" fill="none" stroke="#ffffff" stroke-width="1" opacity="0.5"/>
<rect x="228" y="96" width="44" height="44" fill="none" stroke="#ffffff" stroke-width="1" opacity="0.5"/>
<rect x="272" y="96" width="44" height="44" fill="none" stroke="#ffffff" stroke-width="1" opacity="0.5"/>
<rect x="316" y="96" width="44" height="44" fill="none" stroke="#ffffff" stroke-width="1" opacity="0.5"/>
<rect x="360" y="96" width="44" height="44" fill="none" stroke="#ffffff" stroke-width="1" opacity="0.5"/>
<rect x="404" y="96" width="44" height="44" fill="none" stroke="#ffffff" stroke-width="1" opacity="0.5"/>
<rect x="8" y="140" width="44" height="44" fill="none" stroke="#ffffff" stroke-width="1" opacity="0.5"/>
<rect x="52" y="140" width="44" height="44" fill="none" stroke="#ffffff" stroke-width="1" opacity="0.5"/>
<rect x="96" y="140" width="44" height="44" fill="none" stroke="#ffffff" stroke-width="1" opacity="0.5"/>
<rect x="140" y="140" width="44" height="44" fill="none" stroke="#ffffff" stroke-width="1" opacity="0.5"/>
<rect x="184" y="140" width="44" height="44" fill="none" stroke="#ffffff" stroke-width="1" opacity="0.5"/>
<rect x="228" y="140" width="44" height="44" fill="none" stroke="#ffffff" stroke-width="1" opacity="0.5"/>
<rect x="272" y="140" width="44" height="44" fill="none" stroke="#ffffff" stroke-width="1" opacity="0.5"/>
<rect x="316" y="140" width="44" height="44" fill="none" stroke="#ffffff" stroke-width="1" opacity="0.5"/>
<rect x="360" y="140" width="44" height="44" fill="none" stroke="#ffffff" stroke-width="1" opacity="0.5"/>
<rect x="404" y="140" width="44" height="44" fill="none" stroke="#ffffff" stroke-width="1" opacity="0.5"/>
<rect x="8" y="184" width="44" height="44" fill="none" stroke="#ffffff" stroke-width="1" opacity="0.5"/>
<rect x="52" y="184" width="44" height="44" fill="none" stroke="#ffffff" stroke-width="1" opacity="0.5"/>
<rect x="96" y="184" width="44" height="44" fill="none" stroke="#ffffff" stroke-width="1" opacity="0.5"/>
<rect x="140" y="184" width="44" height="44" fill="none" stroke="#ffffff" stroke-width="1" opacity="0.5"/>
<rect x="184" y="184" width="44" height="44" fill="none" stroke="#ffffff" stroke-width="1" opacity="0.5"/>
<rect x="228" y="184" width="44" height="44" fill="none" stroke="#ffffff" stroke-width="1" opacity="0.5"/>
<rect x="272" y="184" width="44" height="44" fill="none" stroke="#ffffff" stroke-width="1" opacity="0.5"/>
<rect x="316" y="184" width="44" height="44" fill="none" stroke="#ffffff" stroke-width="1" opacity="0.5"/>
<rect x="360" y="184" width="44" height="44" fill="none" stroke="#ffffff" stroke-width="1" opacity="0.5"/>
<rect x="404" y="184" width="44" height="44" fill="none" stroke="#ffffff" stroke-width="1" opacity="0.5"/>
<rect x="8" y="228" width="44" height="44" fill="none" stroke="#ffffff" stroke-width="1" opacity="0.5"/>
<rect x="52" y="228" width="44" height="44" fill="none" stroke="#ffffff" stroke-width="1" opacity="0.5"/>
<rect x="96" y="228" width="44" height="44" fill="none" stroke="#ffffff" stroke-width="1" opacity="0.5"/>
<rect x="140" y="228" width="44" height="44" fill="none" stroke="#ffffff" stroke-width="1" opacity="0.5"/>
<rect x="184" y="228" width="44" height="44" fill="none" stroke="#ffffff" stroke-width="1" opacity="0.5"/>
<rect x="228" y="228" width="44" height="44" fill="none" stroke="#ffffff" stroke-width="1" opacity="0.5"/>
<rect x="272" y="228" width="44" height="44" fill="none" stroke="#ffffff" stroke-width="1" opacity="0.5"/>
<rect x="316" y="228" width="44" height="44" fill="none" stroke="#ffffff" stroke-width="1" opacity="0.5"/>
<rect x="360" y="228" width="44" height="44" fill="none" stroke="#ffffff" stroke-width="1" opacity="0.5"/>
<rect x="404" y="228" width="44" height="44" fill="none" stroke="#ffffff" stroke-width="1" opacity="0.5"/>
<line x1="8" y1="8" x2="8" y2="52" stroke="#2a2a30" stroke-width="2.6" stroke-linecap="round"/>
<line x1="8" y1="8" x2="52" y2="8" stroke="#2a2a30" stroke-width="2.6" stroke-linecap="round"/>
<line x1="8" y1="52" x2="52" y2="52" stroke="#2a2a30" stroke-width="2.6" stroke-linecap="round"/>
<line x1="96" y1="8" x2="96" y2="52" stroke="#2a2a30" stroke-width="2.6" stroke-linecap="round"/>
<line x1="52" y1="8" x2="96" y2="8" stroke="#2a2a30" stroke-width="2.6" stroke-linecap="round"/>
<line x1="96" y1="8" x2="96" y2="52" stroke="#2a2a30" stroke-width="2.6" stroke-linecap="round"/>
<line x1="96" y1="8" x2="140" y2="8" stroke="#2a2a30" stroke-width="2.6" stroke-linecap="round"/>
<line x1="96" y1="52" x2="140" y2="52" stroke="#2a2a30" stroke-width="2.6" stroke-linecap="round"/>
<line x1="140" y1="8" x2="184" y2="8" stroke="#2a2a30" stroke-width="2.6" stroke-linecap="round"/>
<line x1="140" y1="52" x2="184" y2="52" stroke="#2a2a30" stroke-width="2.6" stroke-linecap="round"/>
<line x1="184" y1="8" x2="228" y2="8" stroke="#2a2a30" stroke-width="2.6" stroke-linecap="round"/>
<line x1="184" y1="52" x2="228" y2="52" stroke="#2a2a30" stroke-width="2.6" stroke-linecap="round"/>
<line x1="228" y1="8" x2="272" y2="8" stroke="#2a2a30" stroke-width="2.6" stroke-linecap="round"/>
<line x1="228" y1="52" x2="272" y2="52" stroke="#2a2a30" stroke-width="2.6" stroke-linecap="round"/>
<line x1="316" y1="8" x2="316" y2="52" stroke="#2a2a30" stroke-width="2.6" stroke-linecap="round"/>
<line x1="272" y1="8" x2="316" y2="8" stroke="#2a2a30" stroke-width="2.6" stroke-linecap="round"/>
<line x1="272" y1="52" x2="316" y2="52" stroke="#2a2a30" stroke-width="2.6" stroke-linecap="round"/>
<line x1="316" y1="8" x2="316" y2="52" stroke="#2a2a30" stroke-width="2.6" stroke-linecap="round"/>
<line x1="360" y1="8" x2="360" y2="52" stroke="#2a2a30" stroke-width="2.6" stroke-linecap="round"/>
<line x1="316" y1="8" x2="360" y2="8" stroke="#2a2a30" stroke-width="2.6" stroke-linecap="round"/>
<line x1="360" y1="8" x2="360" y2="52" stroke="#2a2a30" stroke-width="2.6" stroke-linecap="round"/>
<line x1="360" y1="8" x2="404" y2="8" stroke="#2a2a30" stroke-width="2.6" stroke-linecap="round"/>
<line x1="448" y1="8" x2="448" y2="52" stroke="#2a2a30" stroke-width="2.6" stroke-linecap="round"/>
<line x1="404" y1="8" x2="448" y2="8" stroke="#2a2a30" stroke-width="2.6" stroke-linecap="round"/>
<line x1="404" y1="52" x2="448" y2="52" stroke="#2a2a30" stroke-width="2.6" stroke-linecap="round"/>
<line x1="8" y1="52" x2="8" y2="96" stroke="#2a2a30" stroke-width="2.6" stroke-linecap="round"/>
<line x1="52" y1="52" x2="52" y2="96" stroke="#2a2a30" stroke-width="2.6" stroke-linecap="round"/>
<line x1="8" y1="52" x2="52" y2="52" stroke="#2a2a30" stroke-width="2.6" stroke-linecap="round"/>
<line x1="52" y1="52" x2="52" y2="96" stroke="#2a2a30" stroke-width="2.6" stroke-linecap="round"/>
<line x1="140" y1="52" x2="140" y2="96" stroke="#2a2a30" stroke-width="2.6" stroke-linecap="round"/>
<line x1="96" y1="52" x2="140" y2="52" stroke="#2a2a30" stroke-width="2.6" stroke-linecap="round"/>
<line x1="96" y1="96" x2="140" y2="96" stroke="#2a2a30" stroke-width="2.6" stroke-linecap="round"/>
<line x1="140" y1="52" x2="140" y2="96" stroke="#2a2a30" stroke-width="2.6" stroke-linecap="round"/>
<line x1="184" y1="52" x2="184" y2="96" stroke="#2a2a30" stroke-width="2.6" stroke-linecap="round"/>
<line x1="140" y1="52" x2="184" y2="52" stroke="#2a2a30" stroke-width="2.6" stroke-linecap="round"/>
<line x1="184" y1="52" x2="184" y2="96" stroke="#2a2a30" stroke-width="2.6" stroke-linecap="round"/>
<line x1="184" y1="52" x2="228" y2="52" stroke="#2a2a30" stroke-width="2.6" stroke-linecap="round"/>
<line x1="184" y1="96" x2="228" y2="96" stroke="#2a2a30" stroke-width="2.6" stroke-linecap="round"/>
<line x1="228" y1="52" x2="272" y2="52" stroke="#2a2a30" stroke-width="2.6" stroke-linecap="round"/>
<line x1="228" y1="96" x2="272" y2="96" stroke="#2a2a30" stroke-width="2.6" stroke-linecap="round"/>
<line x1="272" y1="52" x2="316" y2="52" stroke="#2a2a30" stroke-width="2.6" stroke-linecap="round"/>
<line x1="272" y1="96" x2="316" y2="96" stroke="#2a2a30" stroke-width="2.6" stroke-linecap="round"/>
<line x1="360" y1="52" x2="360" y2="96" stroke="#2a2a30" stroke-width="2.6" stroke-linecap="round"/>
<line x1="316" y1="96" x2="360" y2="96" stroke="#2a2a30" stroke-width="2.6" stroke-linecap="round"/>
<line x1="360" y1="52" x2="360" y2="96" stroke="#2a2a30" stroke-width="2.6" stroke-linecap="round"/>
<line x1="404" y1="52" x2="404" y2="96" stroke="#2a2a30" stroke-width="2.6" stroke-linecap="round"/>
<line x1="404" y1="52" x2="404" y2="96" stroke="#2a2a30" stroke-width="2.6" stroke-linecap="round"/>
<line x1="448" y1="52" x2="448" y2="96" stroke="#2a2a30" stroke-width="2.6" stroke-linecap="round"/>
<line x1="404" y1="52" x2="448" y2="52" stroke="#2a2a30" stroke-width="2.6" stroke-linecap="round"/>
<line x1="8" y1="96" x2="8" y2="140" stroke="#2a2a30" stroke-width="2.6" stroke-linecap="round"/>
<line x1="52" y1="96" x2="52" y2="140" stroke="#2a2a30" stroke-width="2.6" stroke-linecap="round"/>
<line x1="52" y1="96" x2="52" y2="140" stroke="#2a2a30" stroke-width="2.6" stroke-linecap="round"/>
<line x1="96" y1="96" x2="96" y2="140" stroke="#2a2a30" stroke-width="2.6" stroke-linecap="round"/>
<line x1="52" y1="140" x2="96" y2="140" stroke="#2a2a30" stroke-width="2.6" stroke-linecap="round"/>
<line x1="96" y1="96" x2="96" y2="140" stroke="#2a2a30" stroke-width="2.6" stroke-linecap="round"/>
<line x1="96" y1="96" x2="140" y2="96" stroke="#2a2a30" stroke-width="2.6" stroke-linecap="round"/>
<line x1="96" y1="140" x2="140" y2="140" stroke="#2a2a30" stroke-width="2.6" stroke-linecap="round"/>
<line x1="140" y1="140" x2="184" y2="140" stroke="#2a2a30" stroke-width="2.6" stroke-linecap="round"/>
<line x1="184" y1="96" x2="228" y2="96" stroke="#2a2a30" stroke-width="2.6" stroke-linecap="round"/>
<line x1="184" y1="140" x2="228" y2="140" stroke="#2a2a30" stroke-width="2.6" stroke-linecap="round"/>
<line x1="272" y1="96" x2="272" y2="140" stroke="#2a2a30" stroke-width="2.6" stroke-linecap="round"/>
<line x1="228" y1="96" x2="272" y2="96" stroke="#2a2a30" stroke-width="2.6" stroke-linecap="round"/>
<line x1="228" y1="140" x2="272" y2="140" stroke="#2a2a30" stroke-width="2.6" stroke-linecap="round"/>
<line x1="272" y1="96" x2="272" y2="140" stroke="#2a2a30" stroke-width="2.6" stroke-linecap="round"/>
<line x1="316" y1="96" x2="316" y2="140" stroke="#2a2a30" stroke-width="2.6" stroke-linecap="round"/>
<line x1="272" y1="96" x2="316" y2="96" stroke="#2a2a30" stroke-width="2.6" stroke-linecap="round"/>
<line x1="316" y1="96" x2="316" y2="140" stroke="#2a2a30" stroke-width="2.6" stroke-linecap="round"/>
<line x1="316" y1="96" x2="360" y2="96" stroke="#2a2a30" stroke-width="2.6" stroke-linecap="round"/>
<line x1="316" y1="140" x2="360" y2="140" stroke="#2a2a30" stroke-width="2.6" stroke-linecap="round"/>
<line x1="404" y1="96" x2="404" y2="140" stroke="#2a2a30" stroke-width="2.6" stroke-linecap="round"/>
<line x1="360" y1="140" x2="404" y2="140" stroke="#2a2a30" stroke-width="2.6" stroke-linecap="round"/>
<line x1="404" y1="96" x2="404" y2="140" stroke="#2a2a30" stroke-width="2.6" stroke-linecap="round"/>
<line x1="448" y1="96" x2="448" y2="140" stroke="#2a2a30" stroke-width="2.6" stroke-linecap="round"/>
<line x1="8" y1="140" x2="8" y2="184" stroke="#2a2a30" stroke-width="2.6" stroke-linecap="round"/>
<line x1="8" y1="184" x2="52" y2="184" stroke="#2a2a30" stroke-width="2.6" stroke-linecap="round"/>
<line x1="52" y1="140" x2="96" y2="140" stroke="#2a2a30" stroke-width="2.6" stroke-linecap="round"/>
<line x1="52" y1="184" x2="96" y2="184" stroke="#2a2a30" stroke-width="2.6" stroke-linecap="round"/>
<line x1="140" y1="140" x2="140" y2="184" stroke="#2a2a30" stroke-width="2.6" stroke-linecap="round"/>
<line x1="96" y1="140" x2="140" y2="140" stroke="#2a2a30" stroke-width="2.6" stroke-linecap="round"/>
<line x1="96" y1="184" x2="140" y2="184" stroke="#2a2a30" stroke-width="2.6" stroke-linecap="round"/>
<line x1="140" y1="140" x2="140" y2="184" stroke="#2a2a30" stroke-width="2.6" stroke-linecap="round"/>
<line x1="184" y1="140" x2="184" y2="184" stroke="#2a2a30" stroke-width="2.6" stroke-linecap="round"/>
<line x1="140" y1="140" x2="184" y2="140" stroke="#2a2a30" stroke-width="2.6" stroke-linecap="round"/>
<line x1="184" y1="140" x2="184" y2="184" stroke="#2a2a30" stroke-width="2.6" stroke-linecap="round"/>
<line x1="228" y1="140" x2="228" y2="184" stroke="#2a2a30" stroke-width="2.6" stroke-linecap="round"/>
<line x1="184" y1="140" x2="228" y2="140" stroke="#2a2a30" stroke-width="2.6" stroke-linecap="round"/>
<line x1="228" y1="140" x2="228" y2="184" stroke="#2a2a30" stroke-width="2.6" stroke-linecap="round"/>
<line x1="228" y1="140" x2="272" y2="140" stroke="#2a2a30" stroke-width="2.6" stroke-linecap="round"/>
<line x1="228" y1="184" x2="272" y2="184" stroke="#2a2a30" stroke-width="2.6" stroke-linecap="round"/>
<line x1="360" y1="140" x2="360" y2="184" stroke="#2a2a30" stroke-width="2.6" stroke-linecap="round"/>
<line x1="316" y1="140" x2="360" y2="140" stroke="#2a2a30" stroke-width="2.6" stroke-linecap="round"/>
<line x1="316" y1="184" x2="360" y2="184" stroke="#2a2a30" stroke-width="2.6" stroke-linecap="round"/>
<line x1="360" y1="140" x2="360" y2="184" stroke="#2a2a30" stroke-width="2.6" stroke-linecap="round"/>
<line x1="360" y1="140" x2="404" y2="140" stroke="#2a2a30" stroke-width="2.6" stroke-linecap="round"/>
<line x1="448" y1="140" x2="448" y2="184" stroke="#2a2a30" stroke-width="2.6" stroke-linecap="round"/>
<line x1="404" y1="184" x2="448" y2="184" stroke="#2a2a30" stroke-width="2.6" stroke-linecap="round"/>
<line x1="8" y1="184" x2="8" y2="228" stroke="#2a2a30" stroke-width="2.6" stroke-linecap="round"/>
<line x1="8" y1="184" x2="52" y2="184" stroke="#2a2a30" stroke-width="2.6" stroke-linecap="round"/>
<line x1="52" y1="184" x2="96" y2="184" stroke="#2a2a30" stroke-width="2.6" stroke-linecap="round"/>
<line x1="140" y1="184" x2="140" y2="228" stroke="#2a2a30" stroke-width="2.6" stroke-linecap="round"/>
<line x1="96" y1="184" x2="140" y2="184" stroke="#2a2a30" stroke-width="2.6" stroke-linecap="round"/>
<line x1="96" y1="228" x2="140" y2="228" stroke="#2a2a30" stroke-width="2.6" stroke-linecap="round"/>
<line x1="140" y1="184" x2="140" y2="228" stroke="#2a2a30" stroke-width="2.6" stroke-linecap="round"/>
<line x1="184" y1="184" x2="184" y2="228" stroke="#2a2a30" stroke-width="2.6" stroke-linecap="round"/>
<line x1="184" y1="184" x2="184" y2="228" stroke="#2a2a30" stroke-width="2.6" stroke-linecap="round"/>
<line x1="184" y1="228" x2="228" y2="228" stroke="#2a2a30" stroke-width="2.6" stroke-linecap="round"/>
<line x1="272" y1="184" x2="272" y2="228" stroke="#2a2a30" stroke-width="2.6" stroke-linecap="round"/>
<line x1="228" y1="184" x2="272" y2="184" stroke="#2a2a30" stroke-width="2.6" stroke-linecap="round"/>
<line x1="272" y1="184" x2="272" y2="228" stroke="#2a2a30" stroke-width="2.6" stroke-linecap="round"/>
<line x1="316" y1="184" x2="316" y2="228" stroke="#2a2a30" stroke-width="2.6" stroke-linecap="round"/>
<line x1="272" y1="228" x2="316" y2="228" stroke="#2a2a30" stroke-width="2.6" stroke-linecap="round"/>
<line x1="316" y1="184" x2="316" y2="228" stroke="#2a2a30" stroke-width="2.6" stroke-linecap="round"/>
<line x1="360" y1="184" x2="360" y2="228" stroke="#2a2a30" stroke-width="2.6" stroke-linecap="round"/>
<line x1="316" y1="184" x2="360" y2="184" stroke="#2a2a30" stroke-width="2.6" stroke-linecap="round"/>
<line x1="360" y1="184" x2="360" y2="228" stroke="#2a2a30" stroke-width="2.6" stroke-linecap="round"/>
<line x1="404" y1="184" x2="404" y2="228" stroke="#2a2a30" stroke-width="2.6" stroke-linecap="round"/>
<line x1="360" y1="228" x2="404" y2="228" stroke="#2a2a30" stroke-width="2.6" stroke-linecap="round"/>
<line x1="404" y1="184" x2="404" y2="228" stroke="#2a2a30" stroke-width="2.6" stroke-linecap="round"/>
<line x1="448" y1="184" x2="448" y2="228" stroke="#2a2a30" stroke-width="2.6" stroke-linecap="round"/>
<line x1="404" y1="184" x2="448" y2="184" stroke="#2a2a30" stroke-width="2.6" stroke-linecap="round"/>
<line x1="8" y1="228" x2="8" y2="272" stroke="#2a2a30" stroke-width="2.6" stroke-linecap="round"/>
<line x1="8" y1="272" x2="52" y2="272" stroke="#2a2a30" stroke-width="2.6" stroke-linecap="round"/>
<line x1="96" y1="228" x2="96" y2="272" stroke="#2a2a30" stroke-width="2.6" stroke-linecap="round"/>
<line x1="52" y1="272" x2="96" y2="272" stroke="#2a2a30" stroke-width="2.6" stroke-linecap="round"/>
<line x1="96" y1="228" x2="96" y2="272" stroke="#2a2a30" stroke-width="2.6" stroke-linecap="round"/>
<line x1="96" y1="228" x2="140" y2="228" stroke="#2a2a30" stroke-width="2.6" stroke-linecap="round"/>
<line x1="96" y1="272" x2="140" y2="272" stroke="#2a2a30" stroke-width="2.6" stroke-linecap="round"/>
<line x1="140" y1="272" x2="184" y2="272" stroke="#2a2a30" stroke-width="2.6" stroke-linecap="round"/>
<line x1="228" y1="228" x2="228" y2="272" stroke="#2a2a30" stroke-width="2.6" stroke-linecap="round"/>
<line x1="184" y1="228" x2="228" y2="228" stroke="#2a2a30" stroke-width="2.6" stroke-linecap="round"/>
<line x1="184" y1="272" x2="228" y2="272" stroke="#2a2a30" stroke-width="2.6" stroke-linecap="round"/>
<line x1="228" y1="228" x2="228" y2="272" stroke="#2a2a30" stroke-width="2.6" stroke-linecap="round"/>
<line x1="228" y1="272" x2="272" y2="272" stroke="#2a2a30" stroke-width="2.6" stroke-linecap="round"/>
<line x1="316" y1="228" x2="316" y2="272" stroke="#2a2a30" stroke-width="2.6" stroke-linecap="round"/>
<line x1="272" y1="228" x2="316" y2="228" stroke="#2a2a30" stroke-width="2.6" stroke-linecap="round"/>
<line x1="272" y1="272" x2="316" y2="272" stroke="#2a2a30" stroke-width="2.6" stroke-linecap="round"/>
<line x1="316" y1="228" x2="316" y2="272" stroke="#2a2a30" stroke-width="2.6" stroke-linecap="round"/>
<line x1="316" y1="272" x2="360" y2="272" stroke="#2a2a30" stroke-width="2.6" stroke-linecap="round"/>
<line x1="360" y1="228" x2="404" y2="228" stroke="#2a2a30" stroke-width="2.6" stroke-linecap="round"/>
<line x1="360" y1="272" x2="404" y2="272" stroke="#2a2a30" stroke-width="2.6" stroke-linecap="round"/>
<line x1="448" y1="228" x2="448" y2="272" stroke="#2a2a30" stroke-width="2.6" stroke-linecap="round"/>
<line x1="404" y1="272" x2="448" y2="272" stroke="#2a2a30" stroke-width="2.6" stroke-linecap="round"/>
<rect x="8" y="8" width="440" height="264" fill="none" stroke="#2a2a30" stroke-width="3"/>
</svg>